<?xml version="1.0" standalone="no"?>
<!DOCTYPE svg PUBLIC "-//W3C//DTD SVG 20010904//EN"
 "http://www.w3.org/TR/2001/REC-SVG-20010904/DTD/svg10.dtd">
<svg version="1.0" xmlns="http://www.w3.org/2000/svg"
 width="512.000000pt" height="512.000000pt" viewBox="0 0 512.000000 512.000000"
 preserveAspectRatio="xMidYMid meet">
<metadata>
Created by potrace 1.14, written by Peter Selinger 2001-2017
</metadata>
<g transform="translate(0.000000,512.000000) scale(0.100000,-0.100000)"
fill="#000000" stroke="none">
<path d="M472 5095 c0 -16 2 -22 5 -12 2 9 2 23 0 30 -3 6 -5 -1 -5 -18z"/>
<path d="M908 5113 c6 -2 18 -2 25 0 6 3 1 5 -13 5 -14 0 -19 -2 -12 -5z"/>
<path d="M1280 5111 c0 -4 10 -21 23 -37 18 -24 22 -42 24 -109 1 -44 3 -85 5
-91 3 -10 -29 -58 -57 -88 -6 -6 -22 -27 -35 -46 -28 -40 -49 -65 -103 -124
-21 -22 -45 -54 -54 -71 -9 -16 -22 -35 -29 -43 -8 -7 -14 -17 -14 -21 0 -5
-13 -23 -28 -41 l-29 -33 -38 63 c-45 74 -262 296 -317 325 -21 11 -38 25 -38
31 0 7 -20 20 -45 31 -38 15 -45 22 -46 48 l-2 30 -4 -28 c-4 -25 -7 -27 -43
-21 l-38 6 -7 -53 c-19 -154 -5 -344 30 -431 6 -15 2 -18 -22 -18 -16 0 -33 4
-38 8 -16 14 -128 51 -170 57 -21 2 -53 11 -69 19 -17 8 -55 19 -83 24 l-53 9
0 -103 0 -103 43 -11 c23 -6 56 -18 74 -26 17 -8 45 -17 62 -20 17 -4 31 -10
31 -15 0 -5 9 -9 20 -9 11 0 20 -4 20 -9 0 -5 21 -17 48 -26 46 -15 90 -41 81
-48 -2 -2 -26 -16 -54 -31 -52 -28 -139 -103 -168 -146 -9 -14 -33 -45 -52
-70 -33 -43 -45 -75 -25 -68 8 3 65 76 100 129 43 65 179 169 220 169 14 -1
80 -54 80 -64 0 -3 -6 -11 -13 -18 -7 -7 -37 -62 -67 -121 l-55 -109 0 -123 0
-123 -45 23 c-41 21 -83 62 -231 222 -26 27 -51 58 -57 69 -9 14 -11 -21 -12
-148 l0 -168 43 -42 c102 -104 197 -178 247 -193 14 -4 28 -12 32 -18 7 -11
38 8 38 24 0 5 11 32 24 61 13 29 34 78 46 108 12 30 30 72 41 93 10 22 19 45
19 52 0 7 7 18 15 25 8 7 24 31 36 54 51 104 157 268 209 324 22 24 44 51 50
60 8 14 11 15 19 3 5 -8 11 -9 15 -3 3 6 1 12 -5 14 -8 3 -5 17 9 43 12 22 21
32 22 23 0 -9 -4 -20 -10 -23 -12 -7 -13 -25 -2 -25 4 0 23 29 41 65 19 36 37
65 41 65 5 0 11 14 15 30 4 17 11 30 16 30 5 0 9 6 9 13 0 7 8 20 18 29 24 23
34 37 64 88 21 36 94 141 135 195 88 114 117 147 199 229 27 28 71 70 97 92
l46 41 -50 52 -49 51 -75 0 c-41 0 -75 -4 -75 -9z m-725 -491 c3 -11 10 -19
15 -17 9 2 120 -112 120 -124 0 -3 11 -19 25 -35 14 -16 25 -34 25 -40 0 -6 9
-19 20 -29 12 -10 18 -25 15 -32 -2 -8 -1 -12 4 -8 5 3 19 -11 31 -30 18 -29
20 -38 10 -50 -7 -8 -21 -15 -32 -15 -10 0 -30 -7 -43 -16 -28 -18 -55 -13
-55 12 0 9 -6 14 -13 11 -35 -13 -108 99 -109 168 0 17 -4 35 -8 40 -4 6 -10
28 -13 50 -3 22 -9 61 -13 88 -4 31 -3 47 4 47 6 0 13 -9 17 -20z m35 -310 c0
-5 -2 -10 -4 -10 -3 0 -8 5 -11 10 -3 6 -1 10 4 10 6 0 11 -4 11 -10z"/>
<path d="M570 4561 c0 -5 5 -13 10 -16 6 -3 10 -2 10 4 0 5 -4 13 -10 16 -5 3
-10 2 -10 -4z"/>
<path d="M709 4283 c-13 -16 -12 -17 4 -4 9 7 17 15 17 17 0 8 -8 3 -21 -13z"/>
<path d="M3675 5084 c-16 -19 -38 -42 -47 -51 -27 -26 -31 -19 76 -136 25 -28
28 -29 22 -9 -8 24 10 82 24 82 4 0 13 15 21 33 7 17 25 48 41 67 15 19 28 38
28 42 0 5 -30 8 -67 8 -65 -1 -69 -3 -98 -36z"/>
<path d="M477 5016 c-3 -8 -2 -27 3 -43 8 -26 8 -25 9 15 1 43 -3 52 -12 28z"/>
<path d="M2390 5019 c-19 -4 30 -6 110 -6 144 0 144 4 0 9 -42 2 -91 0 -110
-3z"/>
<path d="M944 4998 c-3 -4 6 -8 20 -8 14 0 26 4 26 9 0 11 -39 10 -46 -1z"/>
<path d="M2210 5000 c-34 -7 -34 -7 -5 -8 17 -1 48 3 70 7 l40 9 -35 0 c-19
-1 -51 -4 -70 -8z"/>
<path d="M2715 4999 c22 -4 58 -8 80 -7 l40 0 -40 9 c-22 4 -58 8 -80 7 l-40
0 40 -9z"/>
<path d="M4632 4975 c0 -16 2 -22 5 -12 2 9 2 23 0 30 -3 6 -5 -1 -5 -18z"/>
<path d="M2841 4986 c9 -9 114 -24 128 -18 12 5 10 8 -9 13 -27 8 -126 12
-119 5z"/>
<path d="M1825 4960 c-18 -8 -18 -9 5 -8 14 0 36 4 50 8 24 8 24 8 -5 8 -16 0
-39 -3 -50 -8z"/>
<path d="M1968 4963 c7 -3 16 -2 19 1 4 3 -2 6 -13 5 -11 0 -14 -3 -6 -6z"/>
<path d="M1670 4901 c-219 -110 -372 -220 -520 -376 -89 -93 -103 -121 -19
-35 109 109 160 155 234 210 33 25 62 48 65 51 3 3 16 12 29 19 14 7 30 17 35
22 20 16 224 121 286 147 21 8 22 10 5 10 -11 0 -63 -22 -115 -48z"/>
<path d="M4633 4895 c0 -22 2 -30 4 -17 2 12 2 30 0 40 -3 9 -5 -1 -4 -23z"/>
<path d="M1035 4877 c-29 -22 -4 -26 40 -6 l40 18 -31 0 c-16 1 -38 -5 -49
-12z"/>
<path d="M4040 4800 c-23 -7 -22 -8 10 -8 19 0 44 3 55 8 17 7 15 9 -10 8 -16
0 -41 -4 -55 -8z"/>
<path d="M4621 4754 c0 -11 3 -14 6 -6 3 7 2 16 -1 19 -3 4 -6 -2 -5 -13z"/>
<path d="M2942 4706 c-17 -7 -38 -18 -45 -25 -8 -9 1 -7 28 4 46 19 231 23
248 6 6 -6 17 -11 25 -11 32 0 155 -104 213 -181 36 -47 99 -125 160 -193 19
-23 53 -63 75 -91 21 -27 48 -59 59 -71 11 -12 56 -62 100 -110 108 -120 235
-251 235 -242 0 4 -16 24 -36 45 -20 21 -62 67 -93 103 -31 35 -74 83 -96 106
-70 74 -153 168 -191 218 -21 28 -45 57 -53 66 -9 9 -41 44 -71 79 -55 63 -73
90 -51 77 7 -5 9 -1 5 9 -4 9 -13 14 -21 11 -8 -4 -11 -1 -7 5 6 11 -72 92
-138 142 -61 47 -132 67 -228 66 -47 -1 -100 -7 -118 -13z"/>
<path d="M1844 4701 c-40 -7 -149 -55 -170 -75 -6 -6 -23 -20 -38 -31 -38 -28
-91 -80 -134 -134 -20 -25 -43 -52 -50 -60 -17 -18 -106 -149 -131 -193 -10
-20 -25 -46 -33 -59 -7 -13 -15 -26 -18 -29 -20 -20 -146 -273 -238 -481 -31
-70 -134 -379 -130 -391 2 -6 28 61 57 148 30 87 71 195 92 238 22 43 39 82
39 87 0 4 18 46 40 93 22 47 40 88 40 92 0 8 33 78 39 84 6 5 20 29 72 125 12
22 25 42 29 45 4 3 13 16 20 29 7 14 17 30 21 35 5 6 26 36 46 66 20 30 39 57
43 60 3 3 17 21 30 40 13 19 29 40 35 46 5 6 24 26 40 45 54 61 165 149 223
177 49 23 70 27 147 27 52 0 105 -6 125 -14 55 -21 85 -35 91 -45 4 -5 13 -6
20 -4 18 6 -70 51 -140 72 -57 17 -97 18 -167 7z"/>
<path d="M3860 4690 c0 -5 5 -10 11 -10 5 0 7 5 4 10 -3 6 -8 10 -11 10 -2 0
-4 -4 -4 -10z"/>
<path d="M2935 4670 c-15 -6 -7 -9 30 -9 28 -1 74 -8 103 -15 58 -16 232 -95
232 -106 0 -4 12 -13 28 -21 15 -8 40 -26 57 -41 16 -15 31 -25 34 -23 12 13
-106 101 -189 142 -116 57 -120 59 -194 72 -68 13 -74 13 -101 1z"/>
<path d="M1868 4626 c-20 -6 -40 -14 -44 -18 -4 -5 -16 -8 -26 -8 -10 0 -18
-4 -18 -9 0 -5 -13 -12 -30 -16 -16 -4 -30 -10 -30 -15 0 -5 -8 -11 -17 -14
-21 -7 -122 -95 -110 -96 5 0 15 7 23 15 32 32 141 104 167 110 15 4 30 11 33
16 3 5 13 9 22 9 9 -1 -6 -13 -35 -28 -29 -15 -67 -38 -84 -52 -63 -49 -231
-216 -277 -275 -25 -33 -49 -62 -52 -65 -7 -7 -50 -60 -80 -100 -14 -18 -31
-39 -39 -47 -7 -8 -11 -16 -9 -19 6 -5 65 59 98 106 14 19 34 45 45 57 11 12
47 52 80 89 161 180 275 273 393 325 28 12 49 26 46 31 -9 14 75 3 131 -17 17
-6 17 -4 -4 14 -18 17 -36 21 -85 20 -33 -1 -78 -6 -98 -13z m22 -16 c-8 -5
-19 -10 -25 -10 -5 0 -3 5 5 10 8 5 20 10 25 10 6 0 3 -5 -5 -10z"/>
<path d="M4563 4518 c-22 -49 -32 -74 -38 -102 -5 -26 -4 -27 10 -13 8 9 15
22 15 29 0 8 4 18 9 24 10 10 26 84 19 84 -3 0 -9 -10 -15 -22z"/>
<path d="M3981 4500 c8 -14 17 -27 20 -30 3 -3 14 -21 24 -40 10 -20 20 -29
23 -22 2 7 -2 19 -8 27 -7 8 -10 22 -6 30 3 10 -1 18 -12 22 -9 3 -26 13 -36
22 -18 15 -18 15 -5 -9z"/>
<path d="M3265 4390 c10 -11 20 -20 23 -20 3 0 -3 9 -13 20 -10 11 -20 20 -23
20 -3 0 3 -9 13 -20z"/>
<path d="M4059 4375 c5 -11 17 -29 26 -40 l16 -20 -10 20 c-5 11 -17 29 -26
40 l-16 20 10 -20z"/>
<path d="M4465 4360 c-3 -5 -2 -10 4 -10 5 0 13 5 16 10 3 6 2 10 -4 10 -5 0
-13 -4 -16 -10z"/>
<path d="M3339 4324 c42 -38 131 -154 131 -173 0 -6 3 -11 8 -11 4 0 18 -20
31 -45 13 -25 28 -45 32 -45 5 0 9 -5 9 -10 0 -6 22 -43 49 -83 56 -84 85
-137 74 -137 -12 0 -222 206 -273 268 -24 28 -47 52 -51 52 -9 0 82 -163 93
-168 4 -2 8 -7 8 -12 0 -8 98 -169 110 -180 9 -9 72 -114 98 -162 14 -27 28
-48 32 -48 4 0 12 -11 18 -24 6 -14 18 -33 26 -43 8 -10 44 -58 80 -106 55
-73 61 -85 36 -71 -49 29 -234 216 -320 323 -19 24 -45 56 -58 70 l-23 26 23
-40 c21 -38 42 -63 128 -155 32 -35 131 -146 172 -193 10 -11 15 -24 12 -29
-3 -4 -2 -7 3 -6 4 2 9 0 10 -5 3 -10 115 -119 188 -183 50 -44 55 -52 43 -65
-27 -27 -3 -76 52 -111 l50 -31 0 -61 c0 -34 5 -68 10 -76 7 -10 8 11 3 63 -3
42 -3 77 1 77 4 0 19 -8 33 -17 15 -10 41 -19 59 -20 34 -2 185 -52 194 -64 3
-4 14 -8 25 -10 17 -4 20 -13 21 -57 0 -28 -4 -52 -9 -52 -5 0 -4 -7 3 -15 7
-9 10 -18 7 -21 -3 -3 -15 12 -26 34 -11 23 -25 43 -31 47 -5 3 -10 15 -10 26
0 26 -16 24 -45 -5 -14 -14 -42 -37 -62 -53 -21 -15 -44 -34 -51 -40 -7 -7
-19 -13 -26 -13 -6 0 -27 -16 -45 -35 -18 -20 -36 -34 -38 -31 -3 3 -7 38 -10
78 -3 40 -6 84 -8 98 -1 14 -3 32 -4 41 -1 10 -19 20 -53 28 -29 8 -79 24
-111 37 -69 27 -68 17 1 -15 53 -25 49 -17 67 -128 2 -13 1 -23 -2 -23 -12 0
-51 26 -85 58 -21 20 -48 43 -59 51 -11 9 -37 32 -58 51 -21 19 -55 51 -77 71
-48 44 -84 86 -64 74 8 -5 30 -19 49 -32 19 -13 39 -23 45 -23 6 0 3 6 -8 12
-57 33 -138 111 -181 175 -22 32 -45 64 -51 70 -7 7 -22 29 -34 49 -16 25 -25
32 -31 23 -10 -17 15 -64 78 -148 40 -54 155 -187 217 -251 92 -96 101 -111
40 -70 -97 66 -323 306 -390 415 -10 17 -21 32 -24 35 -4 3 -22 28 -40 55 -19
28 -37 52 -42 53 -4 2 -8 8 -8 14 0 10 -54 91 -77 116 -7 7 -13 17 -13 21 0 4
-11 21 -24 36 -32 37 -76 128 -76 157 0 13 -5 30 -11 38 -7 11 -8 -13 -4 -80
10 -131 10 -349 2 -445 -4 -44 -8 -115 -9 -157 -1 -43 -4 -78 -7 -78 -3 0 -6
-12 -5 -27 0 -16 -3 -59 -8 -98 -5 -38 -10 -89 -11 -112 -1 -25 -5 -39 -11
-33 -5 5 -8 37 -7 72 7 234 5 678 -4 675 -6 -1 -10 -83 -11 -207 -2 -256 -12
-618 -20 -728 -5 -70 -10 -88 -30 -107 -30 -30 -30 -35 -2 -27 21 5 21 3 14
-59 -4 -35 -9 -93 -12 -129 -2 -36 -6 -75 -9 -87 -9 -41 -40 -27 -81 37 -22
33 -62 90 -91 127 -28 36 -57 78 -65 92 -7 14 -16 28 -19 31 -6 6 -87 155
-130 243 -31 61 -34 77 -20 92 12 13 109 273 117 313 4 18 11 35 15 38 5 3 9
13 9 22 0 9 14 60 30 112 17 52 29 106 29 120 -1 17 -3 19 -6 7 -2 -9 -8 -15
-12 -12 -5 2 -6 -6 -4 -19 3 -13 0 -27 -6 -30 -6 -4 -11 -17 -11 -30 0 -12 -6
-28 -12 -34 -7 -7 -13 -18 -13 -25 -2 -40 -19 -87 -31 -87 -17 0 -19 -20 -1
-20 7 -1 5 -6 -5 -14 -19 -14 -25 -32 -8 -21 5 3 5 -7 -1 -25 -6 -16 -15 -28
-19 -25 -4 3 -6 -4 -3 -14 5 -21 -30 -64 -44 -53 -4 4 1 -4 12 -17 17 -20 17
-23 3 -18 -13 5 -16 1 -12 -19 3 -15 -6 -45 -20 -74 -13 -26 -21 -52 -18 -56
4 -4 1 -4 -6 0 -7 4 -10 11 -7 16 3 5 -6 20 -19 33 -32 32 -42 87 -27 146 41
158 69 317 53 308 -5 -4 -12 -28 -15 -54 -4 -27 -10 -66 -16 -88 -43 -178 -54
-203 -64 -147 -3 15 -13 52 -22 82 -9 30 -30 107 -46 170 -32 125 -42 155 -34
100 10 -72 93 -386 114 -435 5 -11 17 -40 26 -65 27 -72 108 -253 137 -305 7
-11 32 -58 56 -105 25 -47 49 -86 53 -88 5 -2 9 -10 9 -18 0 -8 4 -14 9 -14 5
0 12 -8 16 -19 3 -10 14 -29 25 -41 11 -12 17 -27 13 -33 -3 -5 -1 -7 4 -4 6
4 16 -7 23 -23 10 -24 10 -33 0 -45 -17 -20 -5 -33 29 -30 21 2 28 -1 24 -11
-2 -7 -14 -11 -26 -9 -16 4 -18 2 -9 -7 10 -10 17 -10 34 1 19 12 24 11 40
-10 10 -13 26 -33 36 -44 43 -50 46 -56 26 -49 -14 4 -15 3 -5 -4 7 -5 22 -7
32 -5 12 3 19 0 19 -9 0 -7 12 -21 28 -30 15 -10 41 -29 57 -43 66 -57 73 -63
77 -60 1 2 9 -3 16 -11 16 -18 17 -18 -48 7 -71 27 -110 50 -110 66 0 7 -7 10
-15 7 -14 -6 -20 7 -15 31 1 6 -4 5 -11 -2 -10 -10 -21 -5 -53 25 -23 20 -40
40 -38 45 1 5 -2 6 -8 2 -5 -3 -13 1 -16 9 -3 9 -12 16 -20 16 -8 0 -14 7 -14
15 0 8 -4 15 -9 15 -5 0 -13 9 -16 20 -4 11 -11 17 -17 14 -7 -4 -8 -2 -4 4 8
14 -30 36 -46 26 -6 -4 -8 -3 -5 3 3 5 -3 17 -14 26 -10 9 -19 23 -19 31 0 8
-4 18 -10 21 -6 4 -7 -1 -3 -12 5 -15 3 -15 -14 3 -11 11 -24 31 -28 43 -4 12
-9 20 -12 17 -6 -6 -33 19 -33 30 0 3 -9 15 -21 25 -11 9 -20 21 -21 26 0 4
-4 7 -10 5 -5 -1 -7 2 -3 8 3 5 -1 13 -9 16 -9 3 -16 12 -16 20 0 8 -5 14 -11
14 -5 0 -7 5 -4 10 3 6 2 10 -2 10 -5 0 -16 13 -25 28 -9 15 -30 43 -47 62
-17 19 -31 40 -31 46 0 6 -11 24 -25 40 -14 16 -25 35 -25 42 0 6 -3 12 -8 12
-4 0 -23 30 -42 68 -19 37 -38 69 -42 72 -9 7 -108 219 -108 232 0 5 -6 24
-14 41 -39 89 -96 258 -96 286 0 11 -4 22 -9 25 -8 5 -22 67 -36 160 -4 21 -9
35 -12 32 -8 -8 18 -176 29 -182 4 -3 8 -16 8 -29 0 -13 4 -34 9 -47 5 -13 23
-68 41 -123 17 -55 40 -119 51 -143 11 -24 22 -57 26 -73 3 -16 9 -29 14 -29
5 0 9 -7 9 -15 0 -16 54 -129 114 -237 l37 -67 -25 -60 c-13 -33 -31 -69 -38
-80 -14 -19 -16 -17 -43 39 -17 35 -32 55 -36 49 -8 -13 -25 36 -35 97 -6 40
-34 60 -34 24 0 -19 33 -223 51 -311 10 -50 9 -60 -10 -97 -11 -22 -25 -43
-30 -46 -4 -3 -16 16 -26 42 -10 26 -21 52 -25 57 -10 14 -22 65 -15 65 4 0
15 -5 26 -10 14 -8 19 -7 19 3 0 7 -15 21 -34 29 -30 15 -37 27 -65 110 -33
95 -37 108 -66 213 -9 33 -20 64 -26 70 -5 5 -9 20 -9 33 0 13 -4 20 -10 17
-5 -3 -10 3 -10 14 0 11 -4 22 -9 25 -5 4 -8 -5 -6 -19 1 -14 -2 -25 -6 -25
-5 0 -9 10 -9 23 -1 20 -2 20 -11 4 -5 -9 -8 -21 -5 -25 8 -13 36 -154 36
-180 0 -12 4 -30 9 -40 12 -24 41 -125 41 -145 0 -12 -9 -17 -27 -17 -50 0
-146 19 -153 30 -4 6 -12 50 -19 98 -7 48 -16 101 -20 117 -4 17 -8 55 -10 85
-1 30 -6 71 -10 91 -5 20 -7 69 -6 110 1 41 -3 80 -9 88 -8 11 -8 13 2 7 6 -4
12 -3 12 3 0 5 -6 12 -12 14 -9 4 -8 6 2 6 13 1 16 18 15 107 0 58 2 108 4
110 3 2 6 21 7 42 4 43 12 117 14 117 1 0 3 26 4 57 2 32 -1 55 -5 52 -5 -3
-6 2 -3 10 3 9 10 13 15 10 11 -6 11 -6 0 33 -7 22 -6 33 2 37 7 2 4 5 -5 5
-11 1 -15 6 -12 16 4 8 10 12 15 9 5 -3 9 -1 9 5 0 5 -5 13 -10 16 -6 4 -8 11
-5 16 3 5 -1 6 -9 3 -9 -3 -16 -13 -16 -22 0 -31 -25 -122 -33 -122 -4 0 -5
-5 -2 -10 4 -6 2 -25 -4 -43 -5 -17 -12 -59 -16 -92 -3 -33 -9 -87 -15 -120
-5 -33 -14 -98 -20 -145 -6 -47 -15 -114 -21 -150 -5 -36 -14 -99 -19 -140 -6
-41 -12 -79 -15 -85 -5 -10 0 154 9 300 4 57 3 70 -3 45 -18 -69 -31 -269 -32
-477 l-1 -211 -56 -4 c-32 -2 -62 0 -69 5 -6 4 -14 43 -18 85 -3 42 -11 102
-17 132 -12 61 -15 83 -17 122 -1 20 -5 26 -16 22 -8 -4 -15 -14 -15 -23 0
-10 -7 -26 -15 -37 -8 -10 -14 -14 -13 -9 1 6 -1 26 -5 45 -7 40 -16 171 -27
370 -7 147 -13 95 -12 -115 1 -60 -4 -135 -11 -165 -6 -30 -12 -59 -12 -65
-35 -294 -48 -380 -59 -387 -6 -4 -23 -8 -38 -8 -15 0 -30 -4 -33 -10 -4 -6
10 -10 36 -10 l42 0 -7 -47 c-4 -27 -8 -100 -11 -163 -4 -123 -4 -126 20 122
4 43 14 83 21 89 7 5 39 9 71 7 l58 -3 11 -40 c6 -22 13 -47 16 -55 3 -8 18
-55 34 -105 22 -73 53 -151 82 -207 2 -5 -11 -8 -30 -9 l-33 -1 29 -8 c16 -5
33 -7 37 -4 7 4 49 -65 49 -79 0 -5 -299 3 -337 9 l-33 5 -2 67 -1 67 -7 -70
c-4 -38 -8 -105 -9 -147 0 -43 -5 -78 -9 -78 -4 0 -14 17 -21 38 -7 20 -16 46
-21 57 -7 18 -20 63 -41 140 -25 95 -29 117 -59 322 -5 39 -10 108 -10 152 0
44 -4 82 -8 85 -9 5 -8 127 3 325 6 108 5 142 -3 137 -7 -4 -12 -31 -12 -60 0
-29 -4 -77 -10 -107 -15 -85 -29 -422 -17 -436 6 -9 6 -13 -2 -13 -14 0 -15
-37 -1 -45 5 -3 10 -45 10 -93 0 -77 15 -195 35 -274 6 -23 4 -28 -11 -28 -46
1 -54 21 -54 129 0 55 -4 101 -9 101 -9 0 -13 17 -31 120 -22 122 -32 199 -37
273 -6 83 -20 98 -36 36 -10 -38 -1 -394 12 -504 20 -157 45 -292 61 -330 10
-22 23 -60 29 -85 7 -25 17 -59 22 -76 5 -17 6 -39 2 -49 -5 -13 -3 -16 6 -10
10 6 12 0 7 -26 -3 -19 -3 -28 0 -21 4 9 9 10 19 2 11 -9 11 -4 3 27 -6 21
-12 63 -15 93 l-4 55 23 -26 c20 -22 103 -119 118 -138 3 -3 15 -14 27 -24
l21 -18 -8 33 c-4 18 -20 69 -34 113 -28 87 -30 95 -18 95 4 0 13 -15 20 -32
22 -53 55 -119 62 -123 4 -3 4 15 -1 38 -4 23 -8 63 -9 90 0 43 2 47 24 47 14
0 47 5 75 12 28 6 53 9 56 6 3 -3 -2 -27 -10 -53 -29 -83 -11 -220 43 -324
l31 -61 -42 21 -42 21 29 -31 c50 -53 101 -71 199 -71 51 0 87 4 87 10 0 6
-18 10 -40 10 -25 0 -52 9 -75 24 -20 14 -39 26 -44 28 -5 2 -20 20 -34 41
-22 32 -24 42 -15 67 6 17 17 30 26 30 22 -1 52 -24 52 -39 0 -11 23 -41 32
-41 2 0 4 34 3 76 0 64 3 78 20 90 18 13 20 11 36 -28 29 -76 82 -87 120 -25
10 18 19 47 19 65 0 65 34 20 50 -67 6 -34 4 -53 -7 -76 l-16 -30 23 20 c24
22 70 89 70 104 0 4 -13 11 -30 14 -21 5 -31 14 -36 32 -15 58 21 72 72 27 26
-22 33 -37 37 -81 7 -62 -9 -108 -52 -144 -44 -36 -46 -47 -9 -37 64 19 130
107 153 206 7 32 11 63 8 71 -8 21 10 15 47 -17 94 -81 159 -106 90 -35 -37
38 -35 43 11 19 17 -8 33 -13 36 -11 10 11 -136 145 -197 181 -36 21 -67 42
-70 47 -3 4 -24 -1 -48 -11 -76 -34 -51 -5 74 85 15 11 32 25 38 30 6 6 27 22
46 35 19 13 49 37 65 52 17 15 33 28 38 28 19 0 1 -23 -67 -88 -63 -59 -71
-71 -54 -75 14 -4 18 -1 14 8 -3 8 9 26 26 40 36 31 41 27 64 -54 14 -48 14
-32 -2 62 -6 31 -3 42 16 62 28 30 50 32 57 5 3 -11 9 -20 14 -20 5 0 9 -7 9
-15 0 -8 16 -45 36 -82 20 -38 41 -78 48 -90 6 -13 14 -23 19 -23 4 0 7 -5 7
-10 0 -10 96 -158 109 -170 3 -3 19 -22 35 -44 49 -65 256 -286 256 -273 0 3
-16 40 -35 81 -38 83 -39 86 -27 86 5 0 15 -12 23 -27 8 -16 17 -30 20 -33 3
-3 12 -18 21 -35 29 -58 81 -150 100 -177 10 -14 18 -29 18 -33 0 -3 11 -23
26 -43 l25 -37 -6 30 c-4 17 -9 37 -11 45 -10 42 -15 162 -7 173 12 15 29 77
38 137 9 55 17 40 35 -68 6 -40 14 -72 16 -69 2 2 6 73 10 158 3 85 12 197 20
249 9 52 18 114 21 138 3 23 8 42 13 42 4 0 22 -10 41 -23 19 -12 51 -31 72
-42 20 -11 37 -21 37 -23 0 -8 -28 -29 -70 -54 -48 -28 -90 -61 -90 -72 0 -10
39 -7 60 6 31 20 34 2 6 -35 -14 -19 -26 -44 -26 -55 0 -12 -5 -22 -12 -22 -6
0 -8 -3 -4 -7 4 -5 13 -1 20 8 13 18 80 59 97 59 5 0 19 8 30 19 11 10 42 30
69 45 l48 26 0 -89 c-1 -49 5 -104 11 -123 26 -66 54 -117 80 -142 52 -50 242
-92 310 -68 17 6 33 7 36 3 2 -5 14 -11 26 -14 19 -5 20 -4 5 12 -9 10 -13 21
-9 26 5 4 -5 4 -22 0 -57 -15 -195 -17 -211 -4 -10 8 -12 14 -4 19 7 4 1 14
-17 25 -49 33 -57 46 -64 114 -7 66 3 103 16 61 9 -27 97 -120 114 -120 9 0 8
6 -3 22 -21 30 -22 141 -1 158 12 10 15 9 15 -6 0 -30 48 -93 76 -100 30 -8
64 19 64 50 1 12 6 31 13 44 11 19 15 20 29 10 25 -19 39 -83 26 -119 -6 -16
-7 -33 -4 -36 8 -9 35 28 36 48 0 28 63 69 75 49 4 -6 7 -28 7 -50 0 -33 -6
-46 -32 -71 -40 -39 -33 -47 14 -15 20 13 41 26 47 28 33 11 51 242 23 314 -9
24 -15 46 -13 49 3 2 27 1 54 -3 50 -7 50 -7 53 -47 2 -22 8 -45 13 -51 6 -7
6 -21 0 -35 -33 -86 -38 -140 -9 -111 27 27 41 14 35 -31 -8 -51 -23 -125 -32
-152 -5 -13 6 -6 32 20 38 39 113 175 113 206 0 8 4 19 9 25 20 20 64 175 76
263 9 70 -4 443 -16 435 -5 -3 -9 2 -9 11 0 9 5 13 10 10 6 -3 10 -1 10 5 0 6
11 8 28 4 38 -8 92 -37 92 -49 0 -5 5 -3 10 5 8 13 10 13 10 -2 0 -11 6 -15
20 -11 12 3 20 0 20 -6 0 -7 -4 -9 -10 -6 -6 3 -7 -1 -4 -9 3 -8 14 -18 25
-21 11 -4 17 -11 14 -16 -4 -5 -2 -9 3 -9 5 0 8 -15 6 -32 -1 -18 -8 -112 -14
-208 -6 -96 -15 -220 -20 -275 -18 -180 -21 -218 -30 -355 -8 -125 -13 -163
-41 -325 -12 -67 -13 -72 -39 -170 -10 -38 -30 -114 -44 -168 -14 -54 -28
-103 -31 -108 -4 -5 -17 -51 -30 -102 -25 -99 -51 -189 -65 -222 -5 -11 -11
-29 -13 -40 -3 -11 -19 -58 -37 -105 -17 -47 -36 -97 -40 -112 l-9 -28 155 0
c85 0 154 3 152 8 -16 32 -27 63 -37 97 -6 22 -18 65 -27 95 -38 128 -55 246
-43 299 11 53 37 147 49 176 8 20 33 130 45 198 8 39 25 51 25 18 0 -11 4 -22
9 -25 5 -3 12 -21 15 -40 4 -19 13 -47 20 -62 8 -16 22 -47 31 -69 10 -22 30
-66 46 -98 16 -32 29 -65 29 -73 0 -8 3 -14 8 -14 4 0 13 -15 20 -33 34 -83
187 -377 211 -404 6 -7 11 -16 11 -20 1 -13 38 -58 44 -52 3 3 -2 18 -11 34
-9 17 -22 42 -30 57 -8 15 -18 30 -23 33 -5 3 -15 18 -23 33 -7 15 -23 43 -34
62 -10 19 -22 44 -26 55 -7 20 -7 20 10 -1 10 -11 26 -31 35 -45 14 -20 17
-21 17 -6 1 11 -7 31 -17 45 -27 40 -112 222 -112 239 0 5 -10 20 -23 35 -12
14 -29 36 -37 48 -8 12 -21 29 -28 36 -8 8 -15 20 -16 27 -1 6 -4 17 -8 22
-34 57 -46 85 -35 85 6 0 4 5 -5 11 -11 6 -15 16 -11 26 4 11 3 14 -5 9 -8 -5
-12 2 -12 23 0 16 -4 32 -9 36 -5 3 -17 30 -25 59 -17 56 -14 87 15 241 6 28
14 79 19 115 4 36 15 106 24 155 8 50 20 124 27 165 6 41 15 89 19 105 5 17
11 125 15 240 4 116 8 221 10 235 1 14 3 47 4 74 1 47 1 48 29 42 113 -27 120
-26 97 15 -8 13 -17 31 -21 39 -4 8 -11 17 -14 20 -4 3 -11 16 -15 28 -6 21
-5 23 12 13 11 -5 25 -17 33 -25 7 -9 19 -16 26 -16 8 0 14 -4 14 -9 0 -5 12
-12 28 -15 37 -9 82 -29 82 -37 0 -3 34 -21 75 -40 44 -20 75 -40 75 -49 0
-12 2 -12 9 -1 9 15 27 11 104 -21 35 -15 47 -26 47 -42 1 -19 2 -19 15 5 10
18 11 35 5 55 -4 16 -9 23 -9 16 -1 -10 -6 -10 -23 -1 -12 6 -27 16 -32 21 -6
5 -38 29 -71 53 -33 25 -80 61 -105 81 -25 19 -52 41 -60 47 -8 7 -26 19 -40
28 -14 9 -39 29 -56 45 -62 58 -90 80 -124 101 -82 50 -106 92 -37 64 18 -7
46 -18 62 -23 46 -17 78 -29 97 -39 10 -5 23 -9 29 -9 6 0 25 -6 42 -14 18 -8
59 -24 92 -36 33 -13 74 -29 90 -36 65 -27 144 -52 149 -46 3 3 6 31 6 63 0
64 6 59 -85 74 -50 8 -85 16 -265 54 -80 17 -158 34 -175 37 -36 7 -77 25 -87
39 -9 11 -11 69 -3 77 6 6 74 -9 128 -28 20 -8 55 -14 77 -14 43 0 287 -78
363 -116 l47 -24 0 31 c0 34 -22 59 -75 86 -16 9 -32 19 -35 23 -3 4 -32 25
-65 46 -58 38 -185 127 -215 151 -8 7 -55 42 -105 79 -49 36 -107 81 -127 100
-20 19 -40 34 -44 34 -7 0 0 -85 11 -142 6 -29 -8 -38 -72 -46 -6 -1 -13 -14
-15 -29 -9 -75 -129 -64 -144 13 -5 25 -1 36 18 54 l23 22 -23 -11 c-20 -11
-28 -9 -60 15 -20 15 -31 21 -24 14 33 -37 2 -110 -47 -110 -51 0 -91 36 -91
81 0 22 54 59 85 59 13 0 16 3 8 8 -7 4 -16 19 -22 32 l-10 25 0 -24 c-1 -13
-4 -22 -7 -18 -6 6 -34 106 -60 212 -8 33 -20 76 -26 95 -16 51 -24 80 -38
130 -7 25 -20 65 -30 90 -10 25 -26 70 -35 100 -9 30 -26 73 -36 94 -10 22
-19 45 -19 50 0 12 -39 65 -40 54 0 -7 32 -83 52 -121 17 -34 0 -30 -34 9 -18
20 -38 42 -43 48 -6 6 -22 27 -35 46 -13 19 -27 37 -30 40 -3 3 -20 23 -37 45
-45 58 -268 276 -334 328 -42 32 -42 17 0 -19z m-189 -786 c13 -31 66 -117 80
-128 3 -3 16 -22 28 -43 12 -20 26 -43 32 -50 5 -6 40 -52 76 -101 37 -49 102
-123 147 -165 44 -42 97 -92 117 -111 46 -44 102 -91 131 -110 12 -8 54 -40
93 -70 39 -30 97 -74 129 -98 56 -42 57 -44 57 -92 0 -36 -5 -52 -17 -59 -17
-9 -16 -11 5 -33 21 -24 22 -30 22 -245 l0 -221 -67 -12 c-40 -7 -140 -12
-239 -11 -144 2 -184 -1 -260 -19 -107 -26 -218 -62 -222 -72 -2 -5 -15 -8
-28 -8 -13 0 -24 -4 -24 -10 0 -14 -22 -12 -43 4 -25 19 -13 38 41 63 86 39
202 73 366 108 60 13 14 16 -61 4 -124 -19 -324 -89 -360 -125 -22 -22 -34
-17 -88 34 -80 75 -85 84 -78 166 3 39 9 75 14 81 5 5 9 18 9 30 0 11 10 64
21 117 l22 97 46 14 c102 32 182 40 345 34 224 -9 469 -25 511 -33 20 -3 35
-2 35 3 0 6 -30 13 -67 17 -38 5 -104 12 -148 17 -44 5 -186 12 -315 15 -200
5 -245 3 -300 -11 -122 -31 -114 -31 -106 -4 4 13 12 60 17 104 6 44 14 112
19 150 25 198 35 353 35 572 0 132 3 239 6 237 4 -2 12 -18 19 -36z m508 -503
c-3 -3 -9 2 -12 12 -6 14 -5 15 5 6 7 -7 10 -15 7 -18z m874 -62 c33 -38 40
-63 28 -94 -11 -25 -17 -29 -54 -29 -52 1 -75 18 -83 63 -4 27 -1 38 18 56 28
26 70 27 91 4z m-1921 -16 c-10 -9 -11 -8 -5 6 3 10 9 15 12 12 3 -3 0 -11 -7
-18z m2128 -76 c39 -54 18 -101 -43 -101 -49 0 -80 31 -72 73 9 43 24 57 62
57 25 0 38 -7 53 -29z m-3029 -151 c7 -47 20 -115 30 -152 l17 -68 -64 0 c-63
0 -65 1 -58 23 4 12 9 36 11 52 2 17 9 59 14 95 15 95 18 121 20 165 l2 40 8
-35 c5 -19 14 -73 20 -120z m210 120 c0 -5 -5 -10 -11 -10 -5 0 -7 5 -4 10 3
6 8 10 11 10 2 0 4 -4 4 -10z m-616 -172 c8 -67 24 -147 32 -159 11 -18 -17
-29 -74 -29 l-53 0 6 38 c9 58 26 144 36 183 5 20 9 49 9 65 0 16 3 40 7 54 5
20 9 11 19 -42 7 -37 15 -87 18 -110z m3096 18 c0 -3 -4 -8 -10 -11 -5 -3 -10
-1 -10 4 0 6 5 11 10 11 6 0 10 -2 10 -4z m30 -136 c3 -3 20 -16 38 -29 36
-25 88 -89 79 -97 -5 -6 -209 127 -235 153 -7 7 -16 13 -20 13 -4 0 -16 7 -26
15 -19 15 -19 15 -1 29 17 12 26 9 89 -33 39 -25 73 -48 76 -51z m-2840 46 c0
-3 -4 -8 -10 -11 -5 -3 -10 -1 -10 4 0 6 5 11 10 11 6 0 10 -2 10 -4z m802
-31 c6 -14 15 -25 20 -25 17 0 7 -41 -24 -97 -17 -32 -35 -59 -40 -61 -4 -2
-8 -8 -8 -13 0 -9 -36 -65 -50 -79 -3 -3 -25 -30 -50 -60 -25 -30 -57 -66 -72
-80 -16 -13 -28 -30 -28 -37 0 -7 -7 -10 -17 -6 -12 5 -14 3 -8 -8 4 -8 5 -11
0 -7 -4 4 -14 3 -22 -3 -11 -10 -12 -8 -6 8 5 11 16 31 26 45 33 43 176 291
215 371 20 42 40 77 45 77 4 0 13 -11 19 -25z m88 -139 c23 -36 51 -75 63 -88
12 -14 38 -44 57 -68 54 -67 119 -142 151 -172 16 -15 29 -32 29 -38 0 -6 5
-8 13 -4 7 5 6 1 -2 -10 -11 -13 -15 -51 -17 -139 -1 -67 -3 -124 -4 -127 -1
-3 -8 13 -16 35 l-14 40 5 -35 c11 -74 25 -200 35 -310 5 -63 12 -135 16 -160
l6 -45 -21 33 c-12 18 -21 39 -21 47 0 8 -4 15 -10 15 -5 0 -10 7 -10 15 0 8
-8 34 -19 58 -10 23 -26 62 -36 87 -9 25 -21 54 -25 65 -5 11 -18 47 -30 80
-12 33 -26 69 -30 80 -4 11 -13 36 -20 55 -7 19 -16 44 -20 55 -4 11 -18 54
-30 95 -12 41 -26 83 -31 92 -5 10 -9 24 -9 32 0 7 -6 19 -14 25 -11 9 -12 6
-9 -16 3 -16 8 -37 13 -48 4 -11 14 -47 20 -80 14 -64 40 -154 72 -248 11 -32
18 -62 16 -68 -3 -10 -116 208 -153 296 -9 22 -21 51 -27 65 -21 50 -27 67
-57 156 -36 107 -36 105 -13 130 9 10 28 40 42 67 14 26 28 47 31 47 4 0 10
11 13 25 4 14 8 25 10 25 2 0 23 -29 46 -64z m1637 39 c30 -26 20 -32 -22 -13
-14 6 -25 17 -25 25 0 20 16 16 47 -12z m-2583 -1 c13 -5 16 -22 16 -86 0 -44
5 -88 11 -99 11 -21 15 -61 24 -233 3 -60 8 -121 12 -134 11 -43 -13 -16 -47
54 -46 95 -76 197 -109 364 -21 108 -22 128 -9 133 19 8 84 8 102 1z m235 -11
c6 -10 11 -12 11 -5 0 16 84 16 145 0 35 -9 45 -17 45 -33 0 -23 37 -205 51
-251 17 -57 11 -91 -23 -129 -39 -42 -55 -44 -64 -10 -4 14 -9 24 -12 21 -2
-3 1 -19 8 -36 12 -28 11 -34 -8 -52 -18 -19 -24 -20 -51 -9 -16 7 -36 11 -43
8 -7 -2 2 -8 20 -13 43 -12 44 -24 4 -51 -27 -18 -38 -20 -65 -11 -35 11 -96
26 -140 35 -30 6 -32 9 -41 61 l-6 32 43 -5 42 -5 -40 14 -40 13 0 69 c0 105
13 327 20 346 5 12 21 18 53 21 26 2 55 4 64 5 9 1 22 -6 27 -15z m2417 -65
c12 -18 16 -300 5 -338 -5 -19 -19 -89 -31 -155 -12 -66 -28 -138 -36 -160 -7
-22 -14 -50 -14 -62 0 -13 -4 -23 -10 -23 -5 0 -10 -9 -10 -19 0 -11 -4 -23
-10 -26 -14 -9 -13 1 16 170 48 281 53 320 53 473 1 125 4 152 15 152 8 0 18
-5 22 -12z m-2137 -134 c1 -5 10 -29 21 -52 25 -51 25 -64 1 -86 -18 -17 -19
-17 -25 1 -3 10 -10 45 -15 78 -5 33 -14 80 -21 105 -6 25 -13 54 -16 65 -2
11 9 -7 25 -40 17 -33 30 -65 30 -71z m2438 24 c-3 -8 -6 -5 -6 6 -1 11 2 17
5 13 3 -3 4 -12 1 -19z m-10 -70 c-2 -13 -4 -5 -4 17 -1 22 1 32 4 23 2 -10 2
-28 0 -40z m-2226 -82 c5 -6 9 -17 9 -25 0 -17 28 -112 72 -244 32 -97 34
-129 3 -70 -10 21 -26 49 -35 63 -25 38 -110 240 -110 261 0 10 10 28 23 39
21 20 22 20 25 3 2 -10 8 -22 13 -27z m618 20 c9 -11 6 -15 -13 -18 -21 -4
-23 -3 -13 14 14 22 12 21 26 4z m-1911 -206 c12 -11 26 -20 32 -20 12 0 45
-29 39 -34 -2 -1 -25 -14 -50 -29 l-47 -27 -6 23 c-9 33 -7 107 2 107 5 0 18
-9 30 -20z m1987 -20 c3 -5 -1 -10 -9 -10 -9 0 -16 5 -16 10 0 6 4 10 9 10 6
0 13 -4 16 -10z m765 -10 c-20 -13 -33 -13 -25 0 3 6 14 10 23 10 15 0 15 -2
2 -10z m-52 -7 c-10 -2 -26 -2 -35 0 -10 3 -2 5 17 5 19 0 27 -2 18 -5z m-83
-13 c-28 -12 -78 -12 -70 0 3 6 25 10 48 9 33 0 38 -2 22 -9z m-1981 -30 c8
-8 -2 -9 -34 -4 -71 11 -94 25 -31 20 30 -3 59 -10 65 -16z m1893 14 c-3 -4
-25 -10 -49 -14 -38 -7 -41 -7 -23 6 18 13 85 21 72 8z m-1837 -24 c0 -5 -4
-10 -10 -10 -5 0 -10 5 -10 10 0 6 5 10 10 10 6 0 10 -4 10 -10z m-250 -50 c0
-5 -12 -10 -26 -10 -14 0 -23 4 -19 10 3 6 15 10 26 10 10 0 19 -4 19 -10z
m1975 -51 c7 -10 -21 -38 -37 -39 -10 0 -10 34 -1 43 10 10 31 8 38 -4z m325
-49 c0 -5 -4 -10 -10 -10 -5 0 -10 5 -10 10 0 6 5 10 10 10 6 0 10 -4 10 -10z
m101 0 c23 -13 26 -62 4 -80 -37 -31 -92 42 -58 76 17 17 28 18 54 4z m-1881
-73 c-1 -7 -7 -25 -15 -42 l-13 -30 0 40 c1 22 3 43 5 48 6 10 23 -2 23 -16z
m1443 -90 c5 -32 4 -37 -8 -27 -16 13 -28 57 -19 71 10 16 21 -2 27 -44z m917
-1467 c0 -5 -4 -10 -10 -10 -5 0 -10 5 -10 10 0 6 5 10 10 10 6 0 10 -4 10
-10z"/>
<path d="M2721 1934 c0 -11 3 -14 6 -6 3 7 2 16 -1 19 -3 4 -6 -2 -5 -13z"/>
<path d="M1780 2418 c0 -15 5 -30 10 -33 13 -8 13 25 0 45 -8 12 -10 9 -10
-12z"/>
<path d="M1800 2363 c0 -9 34 -110 60 -177 6 -16 13 -27 15 -24 4 4 -62 198
-70 207 -3 2 -5 0 -5 -6z"/>
<path d="M1880 2136 c0 -8 5 -18 10 -21 6 -3 10 1 10 9 0 8 -4 18 -10 21 -5 3
-10 -1 -10 -9z"/>
<path d="M1900 2091 c0 -5 5 -13 10 -16 6 -3 10 -2 10 4 0 5 -4 13 -10 16 -5
3 -10 2 -10 -4z"/>
<path d="M1715 2000 c27 -12 43 -12 25 0 -8 5 -22 9 -30 9 -10 0 -8 -3 5 -9z"/>
<path d="M1770 1980 c8 -5 22 -10 30 -10 13 0 13 1 0 10 -8 5 -22 10 -30 10
-13 0 -13 -1 0 -10z"/>
<path d="M4426 4343 c-3 -4 3 -13 15 -21 11 -8 22 -12 23 -11 5 7 -32 37 -38
32z"/>
<path d="M3890 4275 c0 -5 5 -17 10 -25 5 -8 10 -10 10 -5 0 6 -5 17 -10 25
-5 8 -10 11 -10 5z"/>
<path d="M4115 4270 c3 -5 8 -10 11 -10 2 0 4 5 4 10 0 6 -5 10 -11 10 -5 0
-7 -4 -4 -10z"/>
<path d="M3926 4215 c4 -8 11 -15 16 -15 6 0 5 6 -2 15 -7 8 -14 15 -16 15 -2
0 -1 -7 2 -15z"/>
<path d="M4550 4216 c0 -11 30 -39 36 -34 2 3 -5 13 -16 23 -11 10 -20 15 -20
11z"/>
<path d="M4160 4190 c0 -5 5 -10 11 -10 5 0 7 5 4 10 -3 6 -8 10 -11 10 -2 0
-4 -4 -4 -10z"/>
<path d="M3960 4175 c0 -4 9 -18 20 -32 11 -14 20 -22 20 -18 0 4 -9 18 -20
32 -11 14 -20 22 -20 18z"/>
<path d="M4609 4143 c12 -18 24 -33 27 -33 9 0 -15 37 -33 51 -12 10 -11 5 6
-18z"/>
<path d="M4185 4150 c3 -5 8 -10 11 -10 2 0 4 5 4 10 0 6 -5 10 -11 10 -5 0
-7 -4 -4 -10z"/>
<path d="M4640 4092 c0 -4 9 -13 20 -20 19 -12 20 -11 8 8 -13 20 -28 27 -28
12z"/>
<path d="M805 4080 c-3 -5 -1 -10 4 -10 6 0 11 5 11 10 0 6 -2 10 -4 10 -3 0
-8 -4 -11 -10z"/>
<path d="M4222 4083 c26 -61 71 -143 74 -140 6 5 -65 147 -73 147 -2 0 -3 -3
-1 -7z"/>
<path d="M768 3992 c-40 -90 -51 -122 -45 -129 4 -3 10 3 13 13 4 10 20 53 35
93 16 41 27 76 25 78 -1 2 -14 -23 -28 -55z"/>
<path d="M4065 4030 c10 -11 20 -20 22 -20 2 0 -2 9 -9 20 -7 11 -17 20 -22
20 -5 0 -1 -9 9 -20z"/>
<path d="M4698 4025 c41 -63 100 -164 113 -194 8 -17 17 -31 21 -31 12 0 10 6
-22 60 -16 28 -30 55 -30 60 0 6 -4 10 -9 10 -5 0 -14 12 -20 28 -7 15 -26 43
-42 62 -27 31 -28 31 -11 5z"/>
<path d="M1970 3989 c0 -5 5 -7 10 -4 6 3 10 8 10 11 0 2 -4 4 -10 4 -5 0 -10
-5 -10 -11z"/>
<path d="M1978 3963 c-2 -5 0 -39 3 -78 l5 -70 2 78 c2 70 -1 90 -10 70z"/>
<path d="M4130 3940 c0 -5 5 -10 11 -10 5 0 7 5 4 10 -3 6 -8 10 -11 10 -2 0
-4 -4 -4 -10z"/>
<path d="M4300 3921 c0 -6 5 -13 10 -16 6 -3 10 1 10 9 0 9 -4 16 -10 16 -5 0
-10 -4 -10 -9z"/>
<path d="M4320 3881 c0 -5 5 -13 10 -16 6 -3 10 -2 10 4 0 5 -4 13 -10 16 -5
3 -10 2 -10 -4z"/>
<path d="M4190 3863 c0 -9 33 -53 65 -87 11 -12 36 -41 55 -66 19 -25 44 -55
55 -67 11 -12 38 -43 60 -69 76 -89 118 -129 123 -116 2 6 9 9 14 6 7 -4 8 -2
4 4 -4 6 -13 9 -21 5 -8 -3 -15 0 -15 6 0 6 4 11 10 11 5 0 0 17 -12 38 -27
47 -27 46 -34 39 -3 -3 4 -20 16 -37 12 -17 20 -33 17 -36 -5 -6 -111 102
-149 151 -12 17 -28 36 -35 43 -7 7 -29 34 -50 60 -21 26 -40 49 -43 52 -3 3
-18 20 -33 38 -15 19 -27 30 -27 25z"/>
<path d="M4340 3842 c0 -15 25 -62 33 -62 10 0 9 2 -9 38 -15 31 -24 40 -24
24z"/>
<path d="M2302 3810 c0 -14 2 -19 5 -12 2 6 2 18 0 25 -3 6 -5 1 -5 -13z"/>
<path d="M2636 3805 c-3 -9 -6 -22 -5 -28 0 -7 5 -1 10 12 5 13 8 26 5 28 -2
2 -6 -3 -10 -12z"/>
<path d="M1980 3790 c0 -5 5 -10 10 -10 6 0 10 5 10 10 0 6 -4 10 -10 10 -5 0
-10 -4 -10 -10z"/>
<path d="M4840 3781 c0 -5 9 -26 20 -48 11 -21 24 -51 30 -67 6 -16 13 -27 15
-24 5 5 -11 49 -41 116 -15 32 -24 41 -24 23z"/>
<path d="M4386 3746 c4 -16 14 -37 23 -46 9 -9 22 -25 29 -36 7 -10 1 4 -13
31 -34 71 -47 88 -39 51z"/>
<path d="M1992 3695 c0 -38 3 -79 8 -90 11 -26 12 39 0 110 l-7 50 -1 -70z"/>
<path d="M2301 3724 c0 -11 3 -14 6 -6 3 7 2 16 -1 19 -3 4 -6 -2 -5 -13z"/>
<path d="M655 3710 c-3 -5 -1 -10 4 -10 6 0 11 5 11 10 0 6 -2 10 -4 10 -3 0
-8 -4 -11 -10z"/>
<path d="M3446 3675 c4 -8 11 -15 16 -15 6 0 5 6 -2 15 -7 8 -14 15 -16 15 -2
0 -1 -7 2 -15z"/>
<path d="M637 3663 c-4 -3 -7 -11 -7 -17 0 -6 5 -5 12 2 6 6 9 14 7 17 -3 3
-9 2 -12 -2z"/>
<path d="M2311 3624 c0 -11 3 -14 6 -6 3 7 2 16 -1 19 -3 4 -6 -2 -5 -13z"/>
<path d="M3480 3633 c0 -15 19 -37 26 -31 3 4 -1 14 -10 23 -9 9 -16 13 -16 8z"/>
<path d="M4450 3631 c0 -5 5 -13 10 -16 6 -3 10 -2 10 4 0 5 -4 13 -10 16 -5
3 -10 2 -10 -4z"/>
<path d="M617 3623 c-4 -3 -7 -13 -7 -22 1 -13 3 -13 11 2 11 19 8 33 -4 20z"/>
<path d="M2586 3535 c-10 -55 -22 -116 -27 -136 -10 -38 -12 -106 -4 -97 3 2
12 47 20 99 8 52 20 117 26 145 6 27 9 59 7 70 -2 10 -12 -26 -22 -81z"/>
<path d="M3010 3620 c0 -5 5 -10 10 -10 6 0 10 5 10 10 0 6 -4 10 -10 10 -5 0
-10 -4 -10 -10z"/>
<path d="M4180 3626 c0 -2 8 -10 18 -17 15 -13 16 -12 3 4 -13 16 -21 21 -21
13z"/>
<path d="M4910 3616 c0 -9 5 -16 10 -16 6 0 10 4 10 9 0 6 -4 13 -10 16 -5 3
-10 -1 -10 -9z"/>
<path d="M4220 3596 c0 -3 23 -27 52 -53 28 -26 67 -63 86 -80 34 -33 52 -41
52 -23 0 6 -3 10 -7 10 -5 0 -22 12 -38 28 -57 52 -145 124 -145 118z"/>
<path d="M4475 3590 c3 -5 8 -10 11 -10 2 0 4 5 4 10 0 6 -5 10 -11 10 -5 0
-7 -4 -4 -10z"/>
<path d="M4930 3584 c0 -18 33 -115 37 -110 6 6 -26 116 -33 116 -2 0 -4 -3
-4 -6z"/>
<path d="M3520 3576 c0 -1 11 -16 25 -32 14 -16 25 -32 25 -36 0 -5 4 -8 10
-8 12 0 -31 67 -47 74 -7 3 -13 4 -13 2z"/>
<path d="M3022 3540 c0 -18 4 -30 12 -30 8 0 11 10 8 30 -2 17 -8 30 -12 30
-4 0 -7 -13 -8 -30z"/>
<path d="M4011 3530 c0 -8 4 -22 9 -30 12 -18 12 -2 0 25 -6 13 -9 15 -9 5z"/>
<path d="M3601 3473 c23 -29 37 -43 44 -43 10 0 -39 59 -49 59 -5 1 -2 -7 5
-16z"/>
<path d="M2320 3463 c0 -5 5 -15 10 -23 8 -12 10 -11 10 8 0 12 -4 22 -10 22
-5 0 -10 -3 -10 -7z"/>
<path d="M4550 3444 c0 -13 160 -178 252 -259 84 -74 95 -83 151 -118 28 -17
45 -33 39 -35 -6 -2 -26 6 -42 18 -17 12 -33 20 -36 17 -3 -2 10 -14 28 -24
88 -53 128 -73 140 -73 7 1 -3 10 -22 21 -24 14 -28 19 -12 15 19 -3 22 0 22
25 0 16 -4 29 -9 29 -5 0 -7 -9 -4 -20 7 -28 -1 -26 -74 20 -83 53 -90 59
-205 170 -55 52 -109 104 -121 116 -12 11 -37 39 -56 62 -30 38 -51 52 -51 36z
m475 -424 c3 -5 2 -10 -4 -10 -5 0 -13 5 -16 10 -3 6 -2 10 4 10 5 0 13 -4 16
-10z"/>
<path d="M4971 3443 c0 -4 4 -17 9 -28 8 -19 9 -19 9 2 1 12 -3 25 -9 28 -5 3
-10 3 -9 -2z"/>
<path d="M4410 3421 c0 -5 14 -14 30 -21 17 -7 30 -16 30 -21 0 -5 6 -9 13 -9
6 0 -4 14 -23 30 -36 30 -50 36 -50 21z"/>
<path d="M3655 3410 c15 -27 243 -260 253 -260 3 0 3 2 1 4 -2 3 -62 64 -133
138 -72 73 -126 126 -121 118z"/>
<path d="M4390 3405 c0 -11 9 -51 20 -90 11 -38 20 -74 20 -79 0 -5 2 -7 5 -4
7 7 -25 171 -36 183 -6 5 -9 1 -9 -10z"/>
<path d="M4991 3380 c0 -8 4 -24 9 -35 l9 -20 0 20 c0 11 -4 27 -9 35 -9 13
-10 13 -9 0z"/>
<path d="M3415 3350 c3 -5 8 -10 11 -10 2 0 4 5 4 10 0 6 -5 10 -11 10 -5 0
-7 -4 -4 -10z"/>
<path d="M4500 3356 c0 -2 7 -9 15 -16 9 -7 15 -8 15 -2 0 5 -7 12 -15 16 -8
3 -15 4 -15 2z"/>
<path d="M4056 3320 c8 -43 14 -51 14 -19 0 13 -5 31 -10 39 -7 11 -8 5 -4
-20z"/>
<path d="M5012 3300 c0 -8 4 -26 8 -40 6 -20 8 -21 8 -5 0 11 -3 29 -8 40 -5
12 -8 14 -8 5z"/>
<path d="M299 3244 c-9 -21 -22 -55 -29 -74 -8 -19 -16 -39 -20 -45 -3 -5 -12
-30 -19 -55 -28 -97 -35 -109 -169 -249 -29 -31 -55 -65 -58 -76 -2 -11 -3
-92 -2 -180 l3 -160 45 62 c61 83 71 86 69 19 -1 -29 1 -58 5 -64 10 -17 -28
-123 -100 -278 -13 -28 -24 -60 -24 -70 0 -10 16 13 34 51 51 105 61 131 116
281 28 77 69 185 92 242 22 57 38 105 35 108 -6 7 -37 -61 -37 -80 0 -7 -4
-16 -9 -22 -4 -5 -27 -56 -51 -114 -23 -58 -44 -107 -47 -110 -3 -3 -3 13 1
35 3 22 8 76 11 120 6 85 50 336 65 370 5 11 14 38 20 60 6 22 15 49 20 60 5
11 19 49 31 85 12 36 26 70 31 77 5 7 8 20 6 29 -2 11 -9 3 -19 -22z"/>
<path d="M4072 3245 c0 -11 4 -31 8 -45 l8 -25 0 25 c0 14 -3 34 -8 45 l-9 20
1 -20z"/>
<path d="M4660 3236 c0 -2 8 -10 18 -17 15 -13 16 -12 3 4 -13 16 -21 21 -21
13z"/>
<path d="M887 3224 c-4 -4 -7 -19 -6 -33 l0 -26 10 24 c10 26 8 47 -4 35z"/>
<path d="M4731 3177 c42 -37 138 -93 104 -61 -28 27 -123 94 -133 94 -4 -1 9
-15 29 -33z"/>
<path d="M5031 3195 c0 -11 4 -29 9 -40 l9 -20 0 20 c0 11 -4 29 -9 40 l-9 20
0 -20z"/>
<path d="M2653 3177 c-8 -17 -8 -24 0 -24 7 0 13 11 13 24 2 29 0 29 -13 0z"/>
<path d="M865 3140 c-4 -12 -5 -24 -2 -27 3 -2 8 5 12 17 4 12 5 24 2 27 -3 2
-8 -5 -12 -17z"/>
<path d="M428 3123 c-8 -16 -47 -150 -68 -231 -22 -91 -26 -137 -10 -112 5 8
10 29 10 47 0 17 5 35 10 38 6 3 10 18 10 33 0 15 7 50 16 77 24 78 43 150 39
153 -2 2 -5 0 -7 -5z"/>
<path d="M987 3113 c-4 -3 -7 -13 -7 -22 1 -13 3 -13 11 2 11 19 8 33 -4 20z"/>
<path d="M845 3074 c-4 -16 -10 -38 -15 -49 -4 -11 -13 -45 -18 -75 -6 -30
-15 -79 -21 -108 -6 -30 -11 -66 -10 -80 0 -24 1 -25 9 -7 4 11 13 54 20 95 6
41 20 112 32 158 11 46 18 86 15 89 -4 3 -9 -8 -12 -23z"/>
<path d="M4860 3095 c0 -2 10 -10 23 -16 20 -11 21 -11 8 4 -13 16 -31 23 -31
12z"/>
<path d="M5051 3084 c0 -11 3 -14 6 -6 3 7 2 16 -1 19 -3 4 -6 -2 -5 -13z"/>
<path d="M2591 3044 c0 -11 3 -14 6 -6 3 7 2 16 -1 19 -3 4 -6 -2 -5 -13z"/>
<path d="M4350 3026 c0 -2 8 -10 18 -17 15 -13 16 -12 3 4 -13 16 -21 21 -21
13z"/>
<path d="M3827 2939 c7 -7 15 -10 18 -7 3 3 -2 9 -12 12 -14 6 -15 5 -6 -5z"/>
<path d="M1361 2904 c0 -11 3 -14 6 -6 3 7 2 16 -1 19 -3 4 -6 -2 -5 -13z"/>
<path d="M5077 2860 c3 -36 7 -67 9 -69 8 -9 2 95 -6 114 -6 13 -7 -3 -3 -45z"/>
<path d="M2540 2886 c0 -8 4 -17 9 -20 5 -4 7 3 4 14 -6 23 -13 26 -13 6z"/>
<path d="M320 2879 c0 -5 5 -7 10 -4 6 3 10 8 10 11 0 2 -4 4 -10 4 -5 0 -10
-5 -10 -11z"/>
<path d="M306 2841 c-4 -7 -5 -15 -2 -18 9 -9 19 4 14 18 -4 11 -6 11 -12 0z"/>
<path d="M286 2794 c-4 -9 -4 -19 -1 -22 2 -3 7 3 11 12 4 9 4 19 1 22 -2 3
-7 -3 -11 -12z"/>
<path d="M820 2740 c0 -19 3 -21 12 -12 9 9 9 15 0 24 -9 9 -12 7 -12 -12z"/>
<path d="M2360 2754 c0 -17 17 -36 24 -26 3 5 -1 15 -9 22 -8 7 -15 9 -15 4z"/>
<path d="M326 2709 c-8 -42 0 -50 9 -9 4 17 5 34 2 36 -2 3 -7 -10 -11 -27z"/>
<path d="M772 2690 c0 -14 2 -19 5 -12 2 6 2 18 0 25 -3 6 -5 1 -5 -13z"/>
<path d="M2403 2680 c1 -14 6 -23 11 -22 5 2 13 -2 18 -10 8 -11 9 -11 6 0 -2
8 -8 13 -13 12 -6 -1 -13 9 -17 22 -7 22 -7 22 -5 -2z"/>
<path d="M2832 2650 c0 -19 2 -27 5 -17 2 9 2 25 0 35 -3 9 -5 1 -5 -18z"/>
<path d="M761 2624 c0 -11 3 -14 6 -6 3 7 2 16 -1 19 -3 4 -6 -2 -5 -13z"/>
<path d="M2431 2614 c6 -7 16 -11 21 -8 11 7 3 17 -18 20 -12 2 -13 -1 -3 -12z"/>
<path d="M311 2604 c0 -11 3 -14 6 -6 3 7 2 16 -1 19 -3 4 -6 -2 -5 -13z"/>
<path d="M761 2584 c0 -11 3 -14 6 -6 3 7 2 16 -1 19 -3 4 -6 -2 -5 -13z"/>
<path d="M2468 2568 c5 -5 16 -8 23 -6 8 3 3 7 -10 11 -17 4 -21 3 -13 -5z"/>
<path d="M2827 2573 c-10 -10 -8 -56 3 -73 7 -11 10 -2 10 33 0 48 -1 52 -13
40z"/>
<path d="M2518 2504 c-9 -8 20 -37 38 -40 8 -1 14 2 14 7 0 5 -7 9 -16 9 -9 0
-12 5 -8 12 4 6 3 8 -4 4 -5 -3 -12 -1 -14 5 -2 5 -6 7 -10 3z"/>
<path d="M288 2423 c-7 -14 -10 -188 -4 -182 8 8 20 189 13 189 -3 0 -7 -3 -9
-7z"/>
<path d="M2590 2422 c0 -7 5 -12 10 -12 6 0 10 -5 10 -11 0 -5 -6 -7 -12 -3
-7 4 -9 3 -5 -1 10 -12 37 -15 37 -6 0 4 -9 16 -20 26 -11 10 -20 13 -20 7z"/>
<path d="M2615 2360 c4 -6 11 -8 16 -5 14 9 11 15 -7 15 -8 0 -12 -5 -9 -10z"/>
<path d="M762 2325 c0 -16 2 -22 5 -12 2 9 2 23 0 30 -3 6 -5 -1 -5 -18z"/>
<path d="M2657 2336 c-3 -8 -2 -18 3 -21 13 -8 20 9 11 24 -6 10 -10 9 -14 -3z"/>
<path d="M921 2304 c0 -11 3 -14 6 -6 3 7 2 16 -1 19 -3 4 -6 -2 -5 -13z"/>
<path d="M762 2260 c0 -14 2 -19 5 -12 2 6 2 18 0 25 -3 6 -5 1 -5 -13z"/>
<path d="M4640 2249 c0 -8 7 -24 15 -35 18 -24 19 -7 0 26 -9 16 -14 19 -15 9z"/>
<path d="M2736 2232 c-3 -5 1 -9 9 -9 8 0 12 4 9 9 -3 4 -7 8 -9 8 -2 0 -6 -4
-9 -8z"/>
<path d="M173 2179 c-13 -30 -23 -60 -23 -66 0 -14 -96 -207 -120 -243 -10
-14 -21 -36 -25 -50 -6 -21 -2 -18 23 13 17 21 34 47 37 58 4 10 11 19 16 19
5 0 9 9 9 20 0 11 3 20 8 20 9 0 36 61 68 150 l23 65 0 -65 c0 -72 -20 -230
-43 -330 -9 -36 -15 -84 -16 -108 0 -82 -38 -302 -52 -302 -4 0 -8 7 -8 15 0
8 -4 15 -10 15 -5 0 -10 8 -10 18 0 10 -11 33 -25 52 l-25 34 2 -270 c1 -148
3 -258 6 -244 2 14 12 36 21 50 10 14 21 33 24 43 6 15 13 17 37 12 25 -6 30
-3 34 17 3 13 5 46 3 74 -1 28 4 63 11 77 6 15 16 37 21 50 4 12 13 33 19 47
5 14 17 52 25 85 9 33 20 79 26 101 6 23 11 47 11 54 0 30 -13 -4 -35 -91 -37
-150 -133 -376 -179 -424 l-19 -20 8 20 c4 11 10 29 13 40 2 11 8 25 12 30 3
6 12 30 19 55 7 25 17 53 22 62 5 10 9 26 9 37 0 10 7 34 15 53 23 57 60 245
69 353 l5 60 -14 -40 -13 -40 0 35 c0 19 6 53 14 75 7 23 11 28 9 13 -3 -16
-1 -28 4 -28 11 0 24 231 19 359 l-3 94 -22 -54z"/>
<path d="M281 2194 c0 -11 3 -14 6 -6 3 7 2 16 -1 19 -3 4 -6 -2 -5 -13z"/>
<path d="M2763 2185 c3 -19 9 -29 18 -26 8 2 19 4 26 4 8 0 9 6 2 19 -12 22
-21 24 -12 2 4 -12 2 -15 -8 -12 -8 3 -14 10 -14 16 0 5 -4 14 -8 18 -5 5 -6
-5 -4 -21z"/>
<path d="M5092 2065 c0 -16 2 -22 5 -12 2 9 2 23 0 30 -3 6 -5 -1 -5 -18z"/>
<path d="M4705 2033 c3 -16 10 -82 15 -148 9 -114 16 -170 39 -310 24 -145 31
-182 41 -220 7 -22 15 -58 20 -80 11 -52 24 -99 43 -155 8 -25 22 -79 31 -120
10 -41 21 -86 25 -100 5 -14 15 -45 22 -70 7 -25 16 -49 19 -55 4 -5 12 -30
19 -55 7 -25 20 -67 31 -95 10 -27 33 -98 51 -157 21 -69 37 -104 43 -98 9 9
-5 74 -25 112 -5 10 -9 27 -9 39 0 11 -5 29 -11 40 -5 11 -9 32 -7 47 l3 27
16 -35 c9 -19 24 -57 33 -85 15 -50 15 -49 13 115 l-2 165 -43 67 c-23 38 -46
89 -51 115 -10 49 -27 254 -37 423 -3 52 -7 106 -9 120 -2 14 -5 36 -6 50 -7
62 -13 -135 -7 -220 3 -52 8 -133 11 -180 3 -47 9 -94 13 -105 6 -15 1 -13
-20 9 -15 15 -30 41 -33 57 -3 16 -9 29 -14 29 -5 0 -9 6 -9 14 0 8 -11 17
-25 20 -24 6 -36 26 -15 26 6 0 10 -4 10 -10 0 -5 5 -10 11 -10 5 0 7 5 4 10
-4 6 -8 24 -10 41 -5 38 -25 65 -35 49 -5 -7 -9 -4 -13 10 -4 15 -2 20 7 17 9
-4 11 2 8 20 -3 18 -7 21 -13 12 -6 -10 -9 -9 -14 6 -4 11 -9 27 -12 35 -5 14
-12 55 -33 183 -25 148 -31 189 -39 292 -12 135 -21 185 -33 185 -6 0 -7 -11
-3 -27z m245 -1094 c0 -11 -4 -17 -10 -14 -5 3 -10 15 -10 26 0 11 5 17 10 14
6 -3 10 -15 10 -26z m27 -66 c6 -16 15 -46 18 -68 4 -22 9 -49 12 -60 3 -13 2
-16 -4 -10 -8 8 -27 64 -50 148 -7 27 11 20 24 -10z"/>
<path d="M328 1975 c-3 -14 -1 -25 3 -25 5 0 9 11 9 25 0 14 -2 25 -4 25 -2 0
-6 -11 -8 -25z"/>
<path d="M5079 1989 c0 -2 -4 -49 -9 -104 -9 -96 -17 -162 -40 -305 -16 -108
-24 -230 -13 -230 5 0 10 37 12 83 1 45 6 100 11 122 27 125 59 419 47 432 -4
3 -7 4 -8 2z"/>
<path d="M4952 1922 c1 -29 6 -52 11 -52 8 0 -1 90 -9 99 -2 3 -3 -19 -2 -47z"/>
<path d="M280 1891 c0 -33 -4 -63 -10 -66 -5 -3 -10 -16 -9 -28 l0 -22 9 23
c5 12 11 22 14 22 2 0 4 -10 3 -22 -2 -53 16 -262 24 -291 5 -18 9 -55 9 -82
0 -28 4 -55 8 -61 5 -5 14 -47 21 -94 7 -47 17 -98 21 -115 5 -16 11 -43 14
-60 4 -28 35 -108 57 -148 5 -10 7 -23 3 -29 -4 -7 -3 -8 4 -4 7 4 12 2 12 -3
0 -22 2 -26 16 -42 7 -8 10 -19 6 -25 -4 -5 -5 -8 -3 -7 7 5 31 -19 31 -31 0
-6 -5 -4 -10 4 -5 8 -10 10 -10 4 0 -6 7 -17 15 -24 9 -7 13 -15 10 -18 -3 -3
3 -14 12 -24 14 -15 14 -18 2 -13 -10 4 -16 0 -16 -10 0 -8 4 -15 9 -15 5 0 6
-4 3 -10 -3 -5 -1 -10 5 -10 6 0 8 -5 5 -10 -4 -6 -11 -8 -16 -5 -5 3 -6 -1
-3 -10 4 -9 1 -27 -6 -41 -10 -18 -11 -30 -2 -49 16 -34 15 -45 -3 -45 -12 0
-15 -16 -15 -80 0 -44 -3 -80 -8 -80 -4 0 -13 -10 -21 -21 -10 -17 -10 -23 0
-29 9 -6 8 -12 -4 -25 -10 -9 -17 -29 -17 -45 0 -16 -5 -32 -10 -35 -6 -3 -10
-28 -10 -55 0 -26 -4 -50 -9 -52 -5 -1 -12 -27 -16 -56 l-7 -53 154 3 153 3
-2 240 c-1 132 -6 261 -11 288 -5 26 -8 47 -6 47 2 0 27 -23 56 -51 29 -28 60
-55 70 -60 16 -9 16 -4 -6 38 -51 102 -85 197 -73 209 3 4 13 0 21 -7 8 -8 38
-34 66 -59 28 -25 80 -72 116 -106 l64 -60 1 -125 c1 -68 2 -131 3 -139 2 -8
3 -61 4 -117 l2 -103 526 0 c467 0 525 2 514 15 -7 8 -19 15 -26 15 -48 0
-412 205 -516 290 -58 47 -195 184 -238 239 -19 24 -44 53 -55 65 -26 27 -85
144 -84 165 0 10 2 12 6 4 2 -7 9 -13 14 -13 10 0 129 -77 139 -90 3 -3 21
-17 40 -30 19 -13 41 -30 48 -37 7 -7 16 -13 20 -13 4 0 21 -13 37 -28 89 -82
154 -115 102 -52 -12 14 -33 41 -47 60 -14 18 -37 47 -52 64 -34 39 -27 49 20
29 48 -20 140 -42 172 -42 21 1 20 3 -10 12 -19 6 -37 13 -40 17 -3 3 -27 16
-55 30 -88 43 -151 97 -205 175 -19 28 -37 52 -40 55 -3 3 -11 16 -18 29 -8
13 -23 40 -34 60 -43 74 -211 407 -223 441 -26 72 -36 93 -40 89 -4 -4 2 -23
34 -104 6 -16 35 -79 65 -140 29 -60 51 -112 49 -115 -4 -5 -18 10 -83 86 -14
16 -43 56 -65 89 -22 33 -43 62 -47 63 -5 2 -8 9 -8 15 0 12 -39 67 -40 56 0
-13 103 -205 146 -272 24 -37 44 -75 44 -85 0 -10 9 -24 20 -32 11 -8 20 -19
20 -24 0 -5 8 -16 18 -25 10 -9 36 -41 57 -71 37 -50 60 -77 139 -164 38 -41
60 -75 53 -82 -3 -3 -26 8 -51 25 -24 17 -49 31 -55 31 -6 0 -11 4 -11 9 0 5
-9 13 -20 16 -11 3 -26 12 -32 18 -7 7 -40 29 -73 51 -75 48 -124 98 -212 217
-83 112 -158 235 -208 342 -20 43 -38 77 -40 75 -4 -4 57 -186 74 -223 5 -11
14 -36 21 -55 7 -19 18 -48 25 -65 7 -16 30 -72 50 -122 28 -69 42 -93 55 -93
10 0 32 -15 48 -34 25 -28 32 -47 37 -101 4 -36 5 -69 2 -72 -4 -3 -17 19 -30
48 -26 57 -56 101 -57 83 0 -6 13 -35 29 -65 22 -42 30 -72 35 -139 l6 -85
-21 25 c-11 14 -27 33 -35 43 -7 9 -14 20 -14 23 0 7 -132 197 -150 214 -3 3
-31 40 -64 83 -32 42 -61 77 -65 77 -14 0 -29 66 -40 170 -12 112 -25 200 -42
291 -10 52 -13 56 -40 56 l-29 0 3 -107 2 -106 28 14 c15 7 25 17 22 22 -3 5
-1 11 5 15 19 11 10 -27 -10 -43 -19 -17 -36 -102 -20 -102 4 0 8 -16 8 -36 0
-20 4 -39 9 -43 4 -3 10 -31 11 -61 2 -30 7 -59 12 -65 4 -5 10 -32 14 -60 6
-48 5 -49 -10 -27 -10 14 -27 22 -44 22 -24 0 -30 5 -35 33 -4 17 -10 37 -14
42 -4 6 -13 30 -20 55 -7 25 -17 56 -21 70 -12 36 -27 106 -39 175 -10 56 -26
331 -23 383 1 13 -3 33 -9 44 -8 14 -8 18 0 14 6 -4 9 4 8 23 -1 16 -5 27 -9
24 -5 -2 -8 8 -8 22 0 15 -7 33 -15 41 -13 14 -15 9 -15 -45z m226 -416 c0
-19 -3 -32 -8 -29 -4 3 -8 21 -8 41 0 45 14 34 16 -12z m22 -135 c-1 -16 -5
-27 -10 -24 -11 7 -10 54 1 54 5 0 9 -13 9 -30z m122 -446 c0 -8 -3 -14 -6
-14 -12 0 -33 35 -33 55 0 19 1 19 19 -4 11 -13 20 -29 20 -37z m363 -265 c44
-75 82 -158 74 -165 -3 -4 -22 6 -40 22 -27 23 -38 43 -51 94 -9 36 -19 76
-22 90 -9 33 0 23 39 -41z"/>
<path d="M320 1905 c0 -8 4 -15 10 -15 5 0 7 7 4 15 -4 8 -8 15 -10 15 -2 0
-4 -7 -4 -15z"/>
<path d="M1990 1880 c0 -5 5 -10 11 -10 5 0 7 5 4 10 -3 6 -8 10 -11 10 -2 0
-4 -4 -4 -10z"/>
<path d="M2090 1831 c0 -11 5 -23 10 -26 6 -3 10 3 10 14 0 11 -4 23 -10 26
-5 3 -10 -3 -10 -14z"/>
<path d="M450 1780 c0 -11 4 -20 9 -20 5 0 7 9 4 20 -3 11 -7 20 -9 20 -2 0
-4 -9 -4 -20z"/>
<path d="M4260 1732 c0 -16 -11 -57 -25 -91 -49 -121 -159 -332 -177 -339 -4
-2 -8 -8 -8 -13 0 -9 -116 -188 -129 -199 -3 -3 -20 -25 -36 -50 -16 -25 -32
-47 -35 -50 -3 -3 -17 -21 -30 -40 -14 -19 -34 -42 -45 -52 -11 -9 -17 -19
-14 -22 3 -3 14 2 25 12 11 9 39 32 63 51 49 38 48 39 10 -63 -10 -28 -17 -51
-15 -54 5 -5 36 58 36 75 0 7 5 13 10 13 6 0 10 8 10 18 0 11 9 30 21 43 11
13 37 51 57 84 19 33 38 62 41 65 3 3 16 23 28 45 11 22 31 58 44 80 26 46 69
134 92 185 8 19 22 52 31 73 36 80 72 257 52 257 -3 0 -6 -13 -6 -28z"/>
<path d="M450 1677 c0 -77 10 -96 41 -77 11 7 10 10 -4 16 -15 5 -18 17 -16
67 2 40 -1 62 -9 65 -9 3 -12 -18 -12 -71z"/>
<path d="M246 1685 c-3 -9 -6 -26 -5 -38 1 -16 4 -12 10 12 10 34 6 55 -5 26z"/>
<path d="M4284 1424 c-13 -38 -139 -285 -154 -302 -9 -9 -27 -36 -40 -59 -13
-24 -27 -43 -32 -43 -4 0 -8 -5 -8 -10 0 -6 -5 -16 -10 -23 -6 -7 -40 -52 -75
-102 -36 -49 -69 -95 -74 -101 -4 -5 -14 -21 -21 -34 -7 -13 -17 -29 -21 -34
-5 -6 -32 -46 -59 -89 -27 -42 -54 -77 -60 -77 -5 0 -10 2 -10 5 0 11 24 55
30 55 3 0 12 16 20 35 8 19 17 35 22 35 4 0 8 6 8 13 0 7 9 33 21 56 11 24 18
45 16 47 -3 3 -22 -30 -43 -73 -45 -94 -136 -234 -186 -288 -20 -22 -35 -41
-33 -43 7 -7 161 130 206 184 9 10 27 29 41 40 14 12 28 28 30 35 3 8 8 11 12
8 12 -11 -33 -115 -70 -159 -21 -25 -71 -74 -112 -110 -98 -87 -92 -82 -132
-110 -19 -14 -43 -32 -53 -40 -29 -25 -184 -118 -209 -125 -13 -4 -34 -16 -48
-25 -14 -10 -47 -28 -75 -41 -27 -12 -52 -26 -55 -29 -3 -4 -12 -10 -20 -13
-8 -3 118 -6 281 -6 320 -1 309 -3 309 50 0 11 4 27 9 37 5 9 25 67 45 127 19
61 49 148 66 195 17 47 33 93 37 102 3 10 9 18 14 18 5 0 9 7 9 16 0 18 52
127 63 132 4 2 7 8 7 13 0 9 118 209 129 219 3 3 12 15 19 27 6 13 18 33 25
45 6 13 14 25 17 28 27 27 140 264 140 294 0 17 4 36 8 42 13 15 34 85 28 91
-3 3 -8 -3 -12 -13z"/>
<path d="M4055 1369 c-4 -6 -5 -12 -2 -15 2 -3 7 2 10 11 7 17 1 20 -8 4z"/>
<path d="M3996 1345 c-3 -9 -6 -22 -5 -28 0 -7 5 -1 10 12 5 13 8 26 5 28 -2
2 -6 -3 -10 -12z"/>
<path d="M4025 1308 l-16 -33 20 25 c20 24 26 40 16 40 -2 0 -12 -15 -20 -32z"/>
<path d="M1360 1309 c0 -5 5 -7 10 -4 6 3 10 8 10 11 0 2 -4 4 -10 4 -5 0 -10
-5 -10 -11z"/>
<path d="M3994 1255 c-4 -8 -12 -15 -19 -15 -7 0 -18 -12 -23 -27 -6 -16 -21
-44 -34 -63 -16 -26 -18 -31 -5 -21 27 22 105 141 92 141 -3 0 -8 -7 -11 -15z"/>
<path d="M2546 1075 c-9 -26 -7 -32 5 -12 6 10 9 21 6 23 -2 3 -7 -2 -11 -11z"/>
<path d="M3858 1081 c-5 -15 -160 -172 -214 -218 -103 -87 -136 -113 -144
-113 -4 0 -10 -7 -13 -15 -5 -12 0 -12 28 2 19 9 35 20 35 25 0 4 6 5 14 2 8
-3 17 -1 21 5 4 7 -1 9 -12 5 -19 -6 -9 3 67 66 63 51 171 161 229 233 7 10 9
17 3 17 -6 0 -12 -4 -14 -9z"/>
<path d="M3684 834 c-18 -14 -18 -15 4 -4 12 6 22 13 22 15 0 8 -5 6 -26 -11z"/>
<path d="M3640 810 c-9 -6 -10 -10 -3 -10 6 0 15 5 18 10 8 12 4 12 -15 0z"/>
<path d="M4053 605 c-3 -9 -3 -18 -1 -21 3 -3 8 4 11 16 6 23 -1 27 -10 5z"/>
<path d="M4640 571 c0 -5 5 -13 10 -16 6 -3 10 -2 10 4 0 5 -4 13 -10 16 -5 3
-10 2 -10 -4z"/>
<path d="M4034 544 c-4 -16 -16 -49 -26 -74 -11 -25 -24 -54 -28 -65 -4 -11
-15 -36 -23 -55 -9 -19 -25 -64 -37 -100 -21 -65 -28 -83 -48 -130 -6 -14 -17
-46 -26 -72 l-15 -48 25 0 c17 0 24 6 24 19 0 11 4 22 9 25 5 3 12 23 16 43 3
21 24 90 45 153 75 227 103 320 97 326 -3 4 -9 -7 -13 -22z"/>
<path d="M2655 540 c11 -5 34 -8 50 -8 l30 0 -30 8 c-16 4 -39 8 -50 8 l-20 1
20 -9z"/>
<path d="M4660 531 c0 -5 5 -13 10 -16 6 -3 10 -2 10 4 0 5 -4 13 -10 16 -5 3
-10 2 -10 -4z"/>
<path d="M4 365 c0 -88 2 -123 3 -77 2 46 2 118 0 160 -1 42 -3 5 -3 -83z"/>
<path d="M241 324 c-1 -223 7 -324 27 -324 11 0 13 8 8 37 -5 28 -4 34 3 23 8
-12 11 -9 11 15 0 23 -3 27 -10 15 -8 -11 -10 -5 -9 25 1 22 -2 90 -5 150 -3
69 -2 101 3 85 5 -14 9 -44 10 -67 1 -23 6 -64 11 -90 6 -26 11 -79 13 -118 2
-59 5 -70 21 -73 11 -3 16 0 12 7 -4 6 -11 48 -17 94 -18 162 -32 240 -62 342
-15 49 -15 47 -16 -121z"/>
<path d="M4680 480 c0 -5 5 -10 10 -10 6 0 10 5 10 10 0 6 -4 10 -10 10 -5 0
-10 -4 -10 -10z"/>
<path d="M4700 450 c0 -29 202 -427 224 -442 25 -17 26 -6 3 34 -14 24 -44 81
-68 128 -24 47 -46 87 -49 90 -3 3 -27 49 -54 103 -46 93 -56 109 -56 87z"/>
<path d="M5112 340 c0 -14 2 -19 5 -12 2 6 2 18 0 25 -3 6 -5 1 -5 -13z"/>
<path d="M4726 201 c-4 -7 -5 -15 -2 -18 9 -9 19 4 14 18 -4 11 -6 11 -12 0z"/>
</g>
</svg>
